<?xml version="1.0" encoding="UTF-8" standalone="no"?>
<!-- Created with Inkscape (http://www.inkscape.org/) -->

<svg
   width="1633.5529"
   height="1522.3918"
   viewBox="0 0 432.21086 402.79951"
   version="1.1"
   id="svg5"
   xmlns="http://www.w3.org/2000/svg"
   xmlns:svg="http://www.w3.org/2000/svg">
  <g
     id="layer1"
     transform="translate(-471.71701,-66.437843)">
    <ellipse
       style="opacity:0.988;fill:none;fill-opacity:1;stroke:#000000;stroke-width:5;stroke-dasharray:none;paint-order:stroke fill markers"
       id="path497"
       cx="687.82245"
       cy="267.83762"
       rx="193.12791"
       ry="183.00677" />
    <g
       id="g1157"
       style="fill:#ff0000;fill-opacity:1;stroke:#000000;stroke-width:1.9;stroke-dasharray:none;stroke-opacity:1">
      <path
         id="path111"
         style="opacity:0.988;fill:#ff0000;fill-opacity:1;stroke:#000000;stroke-width:1.9;stroke-dasharray:none;stroke-opacity:1;paint-order:stroke fill markers"
         d="m 880.95037,289.86513 a 22.027512,22.027512 0 0 1 -22.02751,-22.02751 22.027512,22.027512 0 0 1 22.02751,-22.02751 22.027512,22.027512 0 0 1 22.02752,22.02751 22.027512,22.027512 0 0 1 -22.02752,22.02751 z" />
      <path
         id="path111-3"
         style="opacity:0.988;fill:#ff0000;fill-opacity:1;stroke:#000000;stroke-width:1.9;stroke-dasharray:none;stroke-opacity:1;paint-order:stroke fill markers"
         d="m 852.67992,367.28084 a 22.027512,22.027512 0 0 1 -10.89477,-29.18436 22.027512,22.027512 0 0 1 29.18435,-10.89476 22.027512,22.027512 0 0 1 10.89477,29.18435 22.027512,22.027512 0 0 1 -29.18435,10.89477 z" />
      <path
         id="path111-6"
         style="opacity:0.988;fill:#ff0000;fill-opacity:1;stroke:#000000;stroke-width:1.9;stroke-dasharray:none;stroke-opacity:1;paint-order:stroke fill markers"
         d="m 791.38224,425.10159 a 22.027512,22.027512 0 0 1 2.66998,-31.03697 22.027512,22.027512 0 0 1 31.03697,2.66998 22.027512,22.027512 0 0 1 -2.66998,31.03697 22.027512,22.027512 0 0 1 -31.03697,-2.66998 z" />
      <path
         id="path111-3-7"
         style="opacity:0.988;fill:#ff0000;fill-opacity:1;stroke:#000000;stroke-width:1.9;stroke-dasharray:none;stroke-opacity:1;paint-order:stroke fill markers"
         d="m 709.38237,451.41421 a 22.027512,22.027512 0 0 1 16.2569,-26.57322 22.027512,22.027512 0 0 1 26.57321,16.25689 22.027512,22.027512 0 0 1 -16.25689,26.57322 22.027512,22.027512 0 0 1 -26.57322,-16.25689 z" />
      <path
         id="path111-5"
         style="opacity:0.988;fill:#ff0000;fill-opacity:1;stroke:#000000;stroke-width:1.9;stroke-dasharray:none;stroke-opacity:1;paint-order:stroke fill markers"
         d="m 623.43235,441.09787 a 22.027512,22.027512 0 0 1 26.57324,-16.25688 22.027512,22.027512 0 0 1 16.25688,26.57323 22.027512,22.027512 0 0 1 -26.57323,16.25688 22.027512,22.027512 0 0 1 -16.25689,-26.57323 z" />
      <path
         id="path111-3-3"
         style="opacity:0.988;fill:#ff0000;fill-opacity:1;stroke:#000000;stroke-width:1.9;stroke-dasharray:none;stroke-opacity:1;paint-order:stroke fill markers"
         d="m 550.55566,396.73455 a 22.027512,22.027512 0 0 1 31.03698,-2.66996 22.027512,22.027512 0 0 1 2.66996,31.03697 22.027512,22.027512 0 0 1 -31.03698,2.66997 22.027512,22.027512 0 0 1 -2.66996,-31.03698 z" />
      <path
         id="path111-56"
         style="opacity:0.988;fill:#ff0000;fill-opacity:1;stroke:#000000;stroke-width:1.9;stroke-dasharray:none;stroke-opacity:1;paint-order:stroke fill markers"
         d="m 504.67539,327.2017 a 22.027512,22.027512 0 0 1 29.18435,10.89477 22.027512,22.027512 0 0 1 -10.89476,29.18436 22.027512,22.027512 0 0 1 -29.18436,-10.89477 22.027512,22.027512 0 0 1 10.89477,-29.18436 z" />
      <path
         id="path111-3-2"
         style="opacity:0.988;fill:#ff0000;fill-opacity:1;stroke:#000000;stroke-width:1.9;stroke-dasharray:none;stroke-opacity:1;paint-order:stroke fill markers"
         d="m 494.69452,245.81007 a 22.027512,22.027512 0 0 1 22.02751,22.02751 22.027512,22.027512 0 0 1 -22.02751,22.02752 22.027512,22.027512 0 0 1 -22.02751,-22.02752 22.027512,22.027512 0 0 1 22.02751,-22.02751 z" />
      <path
         id="path111-9"
         style="opacity:0.988;fill:#ff0000;fill-opacity:1;stroke:#000000;stroke-width:1.9;stroke-dasharray:none;stroke-opacity:1;paint-order:stroke fill markers"
         d="m 522.96506,168.39433 a 22.027512,22.027512 0 0 1 10.89475,29.18436 22.027512,22.027512 0 0 1 -29.18436,10.89477 22.027512,22.027512 0 0 1 -10.89475,-29.18437 22.027512,22.027512 0 0 1 29.18436,-10.89476 z" />
      <path
         id="path111-3-1"
         style="opacity:0.988;fill:#ff0000;fill-opacity:1;stroke:#000000;stroke-width:1.9;stroke-dasharray:none;stroke-opacity:1;paint-order:stroke fill markers"
         d="m 584.26266,110.57363 a 22.027512,22.027512 0 0 1 -2.66998,31.03697 22.027512,22.027512 0 0 1 -31.03698,-2.66997 22.027512,22.027512 0 0 1 2.66998,-31.03698 22.027512,22.027512 0 0 1 31.03698,2.66998 z" />
      <path
         id="path111-2"
         style="opacity:0.988;fill:#ff0000;fill-opacity:1;stroke:#000000;stroke-width:1.9;stroke-dasharray:none;stroke-opacity:1;paint-order:stroke fill markers"
         d="M 666.26259,84.261026 A 22.027512,22.027512 0 0 1 650.0057,110.83424 22.027512,22.027512 0 0 1 623.43247,94.577342 22.027512,22.027512 0 0 1 639.68938,68.004127 22.027512,22.027512 0 0 1 666.26259,84.261026 Z" />
      <path
         id="path111-3-70"
         style="opacity:0.988;fill:#ff0000;fill-opacity:1;stroke:#000000;stroke-width:1.9;stroke-dasharray:none;stroke-opacity:1;paint-order:stroke fill markers"
         d="M 752.21254,94.577372 A 22.027512,22.027512 0 0 1 725.63932,110.83426 22.027512,22.027512 0 0 1 709.38243,84.261028 22.027512,22.027512 0 0 1 735.95566,68.004149 22.027512,22.027512 0 0 1 752.21254,94.577372 Z" />
      <path
         id="path111-93"
         style="opacity:0.988;fill:#ff0000;fill-opacity:1;stroke:#000000;stroke-width:1.9;stroke-dasharray:none;stroke-opacity:1;paint-order:stroke fill markers"
         d="m 825.08924,138.9407 a 22.027512,22.027512 0 0 1 -31.03697,2.66996 22.027512,22.027512 0 0 1 -2.66997,-31.03698 22.027512,22.027512 0 0 1 31.03699,-2.66996 22.027512,22.027512 0 0 1 2.66995,31.03698 z" />
      <path
         id="path111-3-6"
         style="opacity:0.988;fill:#ff0000;fill-opacity:1;stroke:#000000;stroke-width:1.9;stroke-dasharray:none;stroke-opacity:1;paint-order:stroke fill markers"
         d="m 870.9695,208.47352 a 22.027512,22.027512 0 0 1 -29.18435,-10.89476 22.027512,22.027512 0 0 1 10.89477,-29.18436 22.027512,22.027512 0 0 1 29.18436,10.89477 22.027512,22.027512 0 0 1 -10.89478,29.18435 z" />
    </g>
  </g>
</svg>
